<?xml version="1.0" standalone="no"?><!DOCTYPE svg PUBLIC "-//W3C//DTD SVG 1.1//EN" "http://www.w3.org/Graphics/SVG/1.1/DTD/svg11.dtd"><svg t="1531378796704" class="icon" style="" viewBox="0 0 1024 1024" version="1.1" xmlns="http://www.w3.org/2000/svg" p-id="15831" xmlns:xlink="http://www.w3.org/1999/xlink" width="256" height="256"><defs><style type="text/css"></style></defs><path d="M817.442574 958.88191c-37.660738 0-74.094532-15.508205-100.227726-42.608423l-176.947038-162.494885c-37.896098 13.458523-77.632101 20.272719-118.465088 20.272719-195.443297 0-354.453824-159.010527-354.453825-354.467127 0-52.908 11.383258-103.791901 33.822317-151.269216a40.038902 40.038902 0 0 1 29.005614-22.295795c12.780071-2.336208 25.755594 1.592264 35.036981 10.534937l156.621107 150.616346 80.791048-83.793428-157.978011-151.504576a40.080857 40.080857 0 0 1-11.983939-34.305317 40.10337 40.10337 0 0 1 20.651342-29.906123c51.41909-27.830859 109.678982-42.542932 168.487366-42.542932 195.4566 0 354.467127 159.010527 354.467127 354.467127 0 32.216749-4.333702 64.173578-12.884448 94.993515a349.106026 349.106026 0 0 1-8.236592 25.794479 362.698602 362.698602 0 0 1-8.340969 20.912285l165.001985 156.060336c28.497031 26.290783 44.840254 63.559595 44.840254 102.329596 0 76.756151-62.450331 139.206482-139.207505 139.206482zM548.84414 667.112754a40.075741 40.075741 0 0 1 27.139103 10.56052l196.461487 180.419115a50.944276 50.944276 0 0 1 2.062986 2.03638c11.265578 11.957333 26.51284 18.549471 42.934858 18.549471 32.530904 0 59.003835-26.472931 59.003835-59.003835 0-16.708544-6.78759-32.152281-19.111266-43.470048-0.156566-0.130983-0.299829-0.274246-0.444115-0.404206l-186.618305-176.502923c-13.236466-12.519128-16.369829-32.399921-7.623631-48.377823a272.762267 272.762267 0 0 0 17.10047-37.882796 266.98468 266.98468 0 0 0 6.344498-19.880793c6.618744-23.849174 9.973142-48.599881 9.973142-73.571622 0-151.23033-123.033128-274.263457-274.263457-274.263457a275.79944 275.79944 0 0 0-77.383438 11.109012l142.745075 136.89688c7.689123 7.375991 12.127202 17.505699 12.335956 28.157293s-3.825119 20.951171-11.226692 28.614711l-136.505977 141.568273c-15.338337 15.939017-40.74089 16.395412-56.654325 1.070378l-140.564409-135.173632c-4.646833 20.142759-6.997368 40.871873-6.997368 62.019519 0 151.23033 123.033128 274.263457 274.250155 274.263457 38.600133 0 75.882248-7.845689 110.828154-23.301705a39.978527 39.978527 0 0 1 16.213264-3.432169z" p-id="15832"></path></svg>