<?xml version="1.0" standalone="no"?><!DOCTYPE svg PUBLIC "-//W3C//DTD SVG 1.1//EN" "http://www.w3.org/Graphics/SVG/1.1/DTD/svg11.dtd"><svg t="1531476254659" class="icon" style="" viewBox="0 0 1024 1024" version="1.1" xmlns="http://www.w3.org/2000/svg" p-id="18459" xmlns:xlink="http://www.w3.org/1999/xlink" width="256" height="256"><defs><style type="text/css"></style></defs><path d="M665.6 563.2v153.6c0 30.72-20.48 51.2-51.2 51.2s-51.2-20.48-51.2-51.2v-153.6c0-30.72 20.48-51.2 51.2-51.2s51.2 20.48 51.2 51.2z m-204.8 0v153.6c0 30.72-20.48 51.2-51.2 51.2s-51.2-20.48-51.2-51.2v-153.6c0-30.72 20.48-51.2 51.2-51.2s51.2 20.48 51.2 51.2zM307.2 409.6c-30.72 0-51.2 20.48-51.2 51.2v358.4c0 30.72 20.48 51.2 51.2 51.2h409.6c30.72 0 51.2-20.48 51.2-51.2V460.8c0-30.72-20.48-51.2-51.2-51.2H307.2zM256 307.2h512c56.32 0 102.4 46.08 102.4 102.4v460.8c0 56.32-46.08 102.4-102.4 102.4H256c-56.32 0-102.4-46.08-102.4-102.4V409.6c0-56.32 46.08-102.4 102.4-102.4z m204.8-179.2V102.4c0-30.72 20.48-51.2 51.2-51.2s51.2 20.48 51.2 51.2v25.6h256c30.72 0 51.2 20.48 51.2 51.2s-20.48 51.2-51.2 51.2H204.8c-30.72 0-51.2-20.48-51.2-51.2s20.48-51.2 51.2-51.2h256z" fill="#000000" p-id="18460"></path></svg>