<?xml version="1.0" standalone="no"?><!DOCTYPE svg PUBLIC "-//W3C//DTD SVG 1.1//EN" "http://www.w3.org/Graphics/SVG/1.1/DTD/svg11.dtd"><svg t="1531376772143" class="icon" style="" viewBox="0 0 1084 1024" version="1.1" xmlns="http://www.w3.org/2000/svg" p-id="3373" xmlns:xlink="http://www.w3.org/1999/xlink" width="271" height="256"><defs><style type="text/css"></style></defs><path d="M1082.897853 461.192129l1.776314 1.406249q-0.875822-0.740131-1.776314-1.406249zM0 463.215154l3.207234-2.541116a30.838787 30.838787 0 0 0-3.207234 2.541116z" p-id="3374"></path><path d="M112.808284 996.861867c-0.283717 1.899669-0.579769 3.787003-0.838815 5.699008a28.445698 28.445698 0 0 0 0.838815-5.699008zM84.374922 1024zM55.978567 993.420258q0.308388-2.134044 0.641447-4.268088a28.371684 28.371684 0 0 0-0.641447 4.268088z" p-id="3375"></path><path d="M1029.460402 986.796087c0.35773 2.232728 0.678453 4.477792 0.999177 6.722856a29.432539 29.432539 0 0 0-0.999177-6.722856zM972.383974 1001.463014c-0.24671-1.763979-0.505756-3.515622-0.777137-5.267265a29.432539 29.432539 0 0 0 0.777137 5.267265z" p-id="3376"></path><path d="M906.833048 290.049195a36.52546 36.52546 0 0 0-36.537796 36.562466v584.59239a36.550131 36.550131 0 0 1-36.574802 36.537795H176.064805a36.574802 36.574802 0 0 1-36.537795-36.537795V180.435809a36.599473 36.599473 0 0 1 36.537795-36.537796h511.541471a36.537795 36.537795 0 1 0 0-73.07559H176.064805a109.786083 109.786083 0 0 0-109.613386 109.613386v730.768242a109.786083 109.786083 0 0 0 109.613386 109.613386h657.655645a109.786083 109.786083 0 0 0 109.613387-109.613386V326.611661a36.52546 36.52546 0 0 0-36.500789-36.562466z" p-id="3377"></path><path d="M1008.045948 10.711458a36.500789 36.500789 0 0 0-51.661137 0L593.264257 373.832012a36.537795 36.537795 0 1 0 51.661137 51.661137L1008.045948 62.38493a36.500789 36.500789 0 0 0 0-51.673472zM468.367168 363.124785H249.140396a36.537795 36.537795 0 0 0 0 73.075591h219.226772a36.537795 36.537795 0 1 0 0-73.075591zM212.602601 618.901688a36.52546 36.52546 0 0 0 36.537795 36.537796h438.46588a36.537795 36.537795 0 1 0 0-73.075591H249.140396a36.52546 36.52546 0 0 0-36.537795 36.537795z" p-id="3378"></path></svg>